# AST/ASF file generated using VICON BodyLanguage
# -----------------------------------------------
:version 1.10
:name VICON
:units
  mass 1.0
  length 0.45
  angle deg
:documentation
   .ast/.asf automatically generated from VICON data using
   VICON BodyBuilder and BodyLanguage model FoxedUp or BRILLIANT.MOD
:root
   order TX TY TZ RX RY RZ
   axis XYZ
   position 0 0 0  
   orientation 0 0 0 
:bonedata
  begin
     id 1 
     name lhipjoint
     direction 0.643824 -0.71708 0.266994 
     length 2.52133 
     axis 0 0 0  XYZ
  end
  begin
     id 2 
     name lfemur
     direction 0.34202 -0.939693 0  
     length 7.51824  
     axis 0 0 20  XYZ
    dof rx ry rz
    limits (-160.0 20.0)
           (-70.0 70.0)
           (-60.0 70.0)
  end
  begin
     id 3 
     name ltibia
     direction 0.34202 -0.939693 0   
     length 7.3685   
     axis 0 0 20   XYZ
    dof rx
    limits (-10.0 170.0)
  end
  begin
     id 4 
     name lfoot
     direction 0.105419 -0.289636 0.951314   
     length 2.20972   
     axis -90 7.62852e-016 20   XYZ
    dof rx rz
    limits (-45.0 90.0)
           (-70.0 20.0)
  end
  begin
     id 5 
     name ltoes
     direction 1.53549e-011 -4.21833e-011 1   
     length 1.10139   
     axis -90 7.62852e-016 20   XYZ
    dof rx
    limits (-90.0 20.0)
  end
  begin
     id 6 
     name rhipjoint
     direction -0.608823 -0.743445 0.276811   
     length 2.43192  
     axis 0 0 0  XYZ 
  end
  begin
     id 7 
     name rfemur
     direction -0.34202 -0.939693 0   
     length 7.69715   
     axis 0 0 -20   XYZ
    dof rx ry rz
    limits (-160.0 20.0)
           (-70.0 70.0)
           (-70.0 60.0)
  end
  begin
     id 8 
     name rtibia
     direction -0.34202 -0.939693 0   
     length 7.44924   
     axis 0 0 -20   XYZ
    dof rx
    limits (-10.0 170.0)
 end
 begin
     id 9 
     name rfoot
     direction -0.103614 -0.284677 0.953007   
     length 2.22623  
     axis -90 -7.62852e-016 -20   XYZ
    dof rx rz
    limits (-45.0 90.0)
           (-20.0 70.0)
  end
  begin
     id 10 
     name rtoes
     direction -1.53537e-011 -4.22026e-011 1   
     length 1.11   
     axis -90 -7.62852e-016 -20   XYZ
    dof rx
    limits (-90.0 20.0)
  end
  begin
     id 11 
     name lowerback
     direction -0.0101212 0.99662 -0.0815298   
     length 2.08277   
     axis 0 0 0   XYZ
    dof rx ry rz
    limits (-20.0 45.0)
           (-30.0 30.0)
           (-30.0 30.0)
  end
  begin
     id 12 
     name upperback
     direction 0.024314 0.999591 -0.0150645   
     length 2.08524   
     axis 0 0 0   XYZ
    dof rx ry rz
    limits (-20.0 45.0)
           (-30.0 30.0)
           (-30.0 30.0)
  end
  begin
     id 13 
     name thorax
     direction 0.0285959 0.999323 0.0231357   
     length 2.09645   
     axis 0 0 0   XYZ
    dof rx ry rz
    limits (-20.0 45.0)
           (-30.0 30.0)
           (-30.0 30.0)
  end
  begin
     id 14 
     name lowerneck
     direction -0.065512 0.979301 0.191515   
     length 1.63798   
     axis 0 0 0   XYZ
    dof rx ry rz
    limits (-20.0 45.0)
           (-30.0 30.0)
           (-30.0 30.0)
  end
  begin
     id 15 
     name upperneck
     direction 0.0498479 0.98191 -0.182667   
     length 1.68731   
     axis 0 0 0   XYZ
    dof rx ry rz
    limits (-20.0 45.0)
           (-30.0 30.0)
           (-30.0 30.0)
  end
  begin
     id 16
     name head
     direction 0.0230358 0.996257 -0.0833175  
     length 1.69785  
     axis 0 0 0   XYZ
    dof rx ry rz
    limits (-20.0 45.0)
           (-30.0 30.0)
           (-30.0 30.0)
  end
  begin
     id 17 
     name lclavicle
     direction 0.967963 0.201165 -0.150269  
     length 3.63976  
     axis 0 0 0   XYZ
    dof ry rz
    limits (-20.0 10.0)
           (0.0 20.0)
  end
  begin
     id 18 
     name lhumerus
     direction 1 -4.48954e-011 -2.92837e-028   
     length 5.32462   
     axis 180 -30 -90   XYZ
    dof rx ry rz
    limits (-60.0 90.0)
           (-90.0 90.0)
           (-90.0 90.0)
  end
  begin
     id 19
     name lradius
     direction 1 -4.48958e-011 -6.39511e-027   
     length 3.48402   
     axis 180 -30 -90   XYZ
    dof rx
    limits (-10.0 170.0)
  end
  begin
     id 20
     name lwrist
     direction 1 -4.48975e-011 -1.1413e-026   
     length 1.74201   
     axis 6.88575e-015 90 90   XYZ
    dof ry
    limits (-180.0 0.0)
 end
  begin
     id 21 
     name lhand
     direction 1 -4.48899e-011 -2.28192e-026   
     length 0.572476   
     axis 1.45643e-014 90 90   XYZ
    dof rx rz
    limits (-90.0 90.0)
           (-45.0 45.0)
  end
  begin
     id 22 
     name lfingers
     direction 1 -4.49155e-011 -4.5684e-026   
     length 0.461545   
     axis 2.91283e-014 90 90   XYZ
    dof rx
    limits (0.0 90.0)
  end
  begin
     id 23
     name lthumb
     direction 0.707107 -6.34943e-011 0.707107   
     length 0.662688   
     axis -90 45 -2.25915e-014   XYZ
    dof rx rz
    limits (-45.0 45.0)
           (-45.0 45.0)
  end
  begin
     id 24 
     name rclavicle
     direction -0.964103 0.264019 -0.0282629   
     length 3.54491  
     axis 0 0 0   XYZ 
    dof ry rz
    limits (-10.0 20.0)
           (-20.0 0.0)
  end
  begin
     id 25 
     name rhumerus
     direction -1 -4.48964e-011 -2.45032e-027  
     length 5.33589   
     axis 180 30 90   XYZ
    dof rx ry rz
    limits (-90.0 60.0)
           (-90.0 90.0)
           (-90.0 90.0)
  end
  begin
     id 26 
     name rradius
     direction -1 -4.48987e-011 -1.55093e-027   
     length 3.64134   
     axis 180 30 90   XYZ
    dof rx
    limits (-10.0 170.0)
  end
  begin
     id 27 
     name rwrist
     direction -1 -4.4897e-011 -1.14128e-026   
     length 1.82067   
     axis 6.88575e-015 -90 -90   XYZ
    dof ry
    limits (-180.0 0.0)
  end
  begin
     id 28
     name rhand
     direction -1 -4.49021e-011 -2.28301e-026   
     length 0.734811   
     axis 1.45643e-014 -90 -90   XYZ
    dof rx rz
    limits (-90.0 90.0)
           (-45.0 45.0)
  end
  begin
     id 29
     name rfingers
     direction -1 -4.48862e-011 -4.56319e-026   
     length 0.592424   
     axis 2.91283e-014 -90 -90   XYZ
    dof rx
    limits (0.0 90.0)
  end
  begin
     id 30
     name rthumb
     direction -0.707107 -6.34978e-011 0.707107   
     length 0.850605   
     axis -90 -45 2.25915e-014   XYZ
    dof rx rz
    limits (-45.0 45.0)
           (-45.0 45.0)
  end
:hierarchy
  begin
    root lhipjoint rhipjoint lowerback
    lhipjoint lfemur
    lfemur ltibia
    ltibia lfoot
    lfoot ltoes
    rhipjoint rfemur
    rfemur rtibia
    rtibia rfoot
    rfoot rtoes
    lowerback upperback
    upperback thorax
    thorax lowerneck lclavicle rclavicle
    lowerneck upperneck
    upperneck head
    lclavicle lhumerus
    lhumerus lradius
    lradius lwrist
    lwrist lhand lthumb
    lhand lfingers
    rclavicle rhumerus
    rhumerus rradius
    rradius rwrist
    rwrist rhand rthumb
    rhand rfingers
  end

#!OML:ASF F:\VICON\USERDATA\INSTALL\rory3\rory3.ASF
:FULLY-SPECIFIED
:DEGREES
443
root -3.41511 17.9147 -5.07987 -159.277 73.15 -169.531
lowerback 6.00534 -1.5313 -6.66675
upperback 1.19992 -2.41786 -0.00167584
thorax -1.84664 -1.15836 3.91425
lowerneck -3.57604 -17.084 -18.4949
upperneck 23.0671 -21.5793 2.64572
head 10.3425 -11.2617 1.17688
rclavicle -1.03368e-014 0
rhumerus -50.9785 -59.0877 -18.0432
rradius 57.8889
rwrist -50.4554
rhand -40.2666 -2.11145
rfingers 7.12502
rthumb -13.2248 -31.672
lclavicle -1.03368e-014 0
lhumerus -49.2646 26.802 37.7257
lradius 40.6956
lwrist -8.49094
lhand -1.28895 29.0839
lfingers 7.12502
lthumb 24.3552 57.5563
rfemur -21.3649 -14.0883 15.0117
rtibia 33.4989
rfoot -33.6274 -34.1323
rtoes 24.2088
lfemur -20.939 -5.29068 -16.0094
ltibia 27.6982
lfoot -13.8216 -9.45834
ltoes -6.99915
444
root -3.41699 17.9221 -5.10691 -159.234 73.1386 -169.472
lowerback 5.9141 -1.55118 -6.77237
upperback 1.15786 -2.4471 -0.0750856
thorax -1.83465 -1.17179 3.89656
lowerneck -3.59565 -17.0325 -18.3167
upperneck 23.0185 -21.526 2.62438
head 10.296 -11.2273 1.16194
rclavicle 3.33958e-014 4.77083e-015
rhumerus -49.801 -60.2217 -17.438
rradius 59.2338
rwrist -50.3064
rhand -41.2277 -0.15955
rfingers 7.12502
rthumb -14.151 -29.6576
lclavicle 3.33958e-014 4.77083e-015
lhumerus -49.5397 26.9173 37.1153
lradius 40.6419
lwrist -8.23742
lhand -1.25752 29.2242
lfingers 7.12502
lthumb 24.3854 57.6925
rfemur -21.2423 -14.1185 14.9398
rtibia 33.3134
rfoot -33.1755 -34.3012
rtoes 24.3793
lfemur -20.8254 -5.33681 -16.0784
ltibia 27.5784
lfoot -13.8157 -9.45539
ltoes -6.87444
445
root -3.41889 17.927 -5.13512 -159.2 73.0634 -169.475
lowerback 5.77741 -1.60373 -6.74512
upperback 1.08217 -2.51089 -0.204846
thorax -1.8366 -1.20193 3.74712
lowerneck -3.56948 -16.9644 -18.219
upperneck 23.0097 -21.4576 2.64565
head 10.2702 -11.1892 1.17397
rclavicle 6.59965e-014 3.18055e-015
rhumerus -48.4903 -61.3382 -17.0882
rradius 60.6369
rwrist -49.8583
rhand -41.591 -1.33607
rfingers 7.12502
rthumb -14.5011 -30.8093
lclavicle 6.59965e-014 3.18055e-015
lhumerus -49.6739 26.8706 36.5463
lradius 40.5473
lwrist -7.86303
lhand -1.39169 29.3867
lfingers 7.12502
lthumb 24.2567 57.8723
rfemur -21.1605 -14.2513 14.8726
rtibia 33.1353
rfoot -32.6604 -34.3379
rtoes 24.7736
lfemur -20.7899 -5.26313 -16.1695
ltibia 27.4549
lfoot -13.7983 -9.60879
ltoes -7.03802
446
root -3.42258 17.9316 -5.16152 -158.603 72.9516 -168.863
lowerback 5.67102 -1.63506 -6.53721
upperback 1.02317 -2.53717 -0.28844
thorax -1.84854 -1.21481 3.54306
lowerneck -3.63242 -16.9512 -17.9396
upperneck 23.1077 -21.4171 2.44448
head 10.2532 -11.1683 1.07765
rclavicle -2.78299e-014 -1.59028e-015
rhumerus -46.7608 -62.5618 -17.1191
rradius 61.8622
rwrist -49.2274
rhand -41.4118 -3.30571
rfingers 7.12502
rthumb -14.3284 -32.7913
lclavicle -2.78299e-014 -1.59028e-015
lhumerus -49.6132 26.6491 36.1641
lradius 40.3579
lwrist -7.08719
lhand -1.73601 29.7015
lfingers 7.12502
lthumb 23.9266 58.2308
rfemur -21.0569 -14.2309 15.0047
rtibia 32.9684
rfoot -32.2992 -34.2562
rtoes 25.5502
lfemur -20.7306 -5.27231 -16.0421
ltibia 27.3302
lfoot -13.8022 -9.67218
ltoes -7.01232
447
root -3.42637 17.9364 -5.18469 -158.19 72.939 -168.346
lowerback 5.66476 -1.61825 -6.47653
upperback 0.973326 -2.51439 -0.335651
thorax -1.90409 -1.20104 3.45976
lowerneck -3.68475 -16.9464 -17.7698
upperneck 23.2612 -21.3967 2.32443
head 10.2808 -11.1572 1.0136
rclavicle 7.55382e-015 2.06736e-014
rhumerus -44.3051 -63.6556 -17.8319
rradius 63.0378
rwrist -48.6721
rhand -41.1873 -2.9432
rfingers 7.12502
rthumb -14.1122 -32.444
lclavicle 7.55382e-015 2.06736e-014
lhumerus -49.586 26.6309 35.7541
lradius 40.0871
lwrist -6.68654
lhand -1.77145 29.8553
lfingers 7.12502
lthumb 23.8926 58.389
rfemur -20.8601 -13.9864 15.053
rtibia 32.7928
rfoot -31.893 -34.1373
rtoes 26.0158
lfemur -20.5781 -5.24727 -15.9745
ltibia 27.2324
lfoot -13.7723 -9.69911
ltoes -6.65614
448
root -3.4327 17.9377 -5.20401 -158.282 73.0008 -168.326
lowerback 5.74517 -1.60188 -6.63759
upperback 0.899488 -2.51242 -0.36382
thorax -2.02015 -1.19342 3.52524
lowerneck -3.6257 -16.8958 -17.9205
upperneck 23.3094 -21.3428 2.41951
head 10.3132 -11.1366 1.07245
rclavicle -4.21423e-014 1.90833e-014
rhumerus -41.0172 -64.464 -19.3782
rradius 64.2416
rwrist -48.0676
rhand -41.2237 -2.14832
rfingers 7.12502
rthumb -14.1472 -31.6466
lclavicle -4.21423e-014 1.90833e-014
lhumerus -49.7331 26.7894 35.2931
lradius 39.9152
lwrist -6.76741
lhand -1.75102 29.9945
lfingers 7.12502
lthumb 23.9122 58.5257
rfemur -20.6433 -13.7711 14.9251
rtibia 32.6074
rfoot -30.9503 -33.955
rtoes 26.0003
lfemur -20.4223 -5.04954 -16.0949
ltibia 27.1716
lfoot -13.794 -9.85184
ltoes -6.37257
449
root -3.44005 17.9358 -5.22789 -158.255 73.0862 -168.252
lowerback 5.69691 -1.58721 -6.64268
upperback 0.827903 -2.49451 -0.427915
thorax -2.07213 -1.18129 3.46033
lowerneck -3.542 -16.8625 -18.0453
upperneck 23.2611 -21.3281 2.53795
head 10.3088 -11.131 1.13602
rclavicle 3.18055e-015 -1.27222e-014
rhumerus -37.3115 -65.1644 -21.5159
rradius 65.5062
rwrist -47.5352
rhand -41.2914 -1.40502
rfingers 7.12502
rthumb -14.2125 -30.8988
lclavicle 3.18055e-015 -1.27222e-014
lhumerus -49.8974 26.927 34.906
lradius 39.9047
lwrist -6.68141
lhand -1.97604 30.1832
lfingers 7.12502
lthumb 23.6964 58.7425
rfemur -20.5031 -13.7971 14.8375
rtibia 32.4279
rfoot -29.2992 -33.5412
rtoes 25.7387
lfemur -20.3164 -4.99529 -16.2151
ltibia 27.1165
lfoot -13.8965 -9.74533
ltoes -6.59087
450
root -3.44802 17.932 -5.24984 -158.283 73.2144 -168.217
lowerback 5.66197 -1.54789 -6.72249
upperback 0.76578 -2.44822 -0.453471
thorax -2.11985 -1.15483 3.47558
lowerneck -3.61816 -16.8886 -18.1135
upperneck 23.3534 -21.324 2.45279
head 10.3552 -11.1402 1.10476
rclavicle 4.6118e-014 -1.43125e-014
rhumerus -33.1357 -65.814 -24.1118
rradius 66.8075
rwrist -47.0858
rhand -40.9399 -0.786307
rfingers 7.12502
rthumb -13.8737 -30.3036
lclavicle 4.6118e-014 -1.43125e-014
lhumerus -49.964 27.0924 34.6071
lradius 39.7866
lwrist -6.42034
lhand -1.83773 30.3027
lfingers 7.12502
lthumb 23.829 58.8447
rfemur -20.3318 -13.7733 14.7213
rtibia 32.2517
rfoot -27.7833 -32.6918
rtoes 25.8442
lfemur -20.1827 -4.95993 -16.3502
ltibia 27.0599
lfoot -13.913 -9.66627
ltoes -6.62197
451
root -3.45538 17.9347 -5.26666 -158.038 73.3069 -167.913
lowerback 5.62207 -1.53266 -6.75157
upperback 0.696319 -2.43098 -0.465439
thorax -2.17088 -1.14309 3.47839
lowerneck -3.73299 -16.863 -18.0146
upperneck 23.4241 -21.2493 2.31541
head 10.3651 -11.109 1.04939
rclavicle -2.14687e-014 -2.8625e-014
rhumerus -28.4279 -66.3095 -27.3946
rradius 68.1463
rwrist -46.4646
rhand -41.1691 -1.20629
rfingers 7.12502
rthumb -14.0945 -30.7083
lclavicle -2.14687e-014 -2.8625e-014
lhumerus -49.9703 27.1999 34.2905
lradius 39.5863
lwrist -6.19427
lhand -1.63976 30.3733
lfingers 7.12502
lthumb 24.0189 58.8904
rfemur -20.141 -13.5251 14.6897
rtibia 32.0573
rfoot -26.9981 -31.3438
rtoes 26.0091
lfemur -20.1043 -4.80788 -16.3728
ltibia 27.038
lfoot -13.93 -9.76197
ltoes -6.40517
452
root -3.46026 17.9413 -5.28361 -157.512 73.4668 -167.375
lowerback 5.47689 -1.49358 -6.65441
upperback 0.613377 -2.36819 -0.558776
thorax -2.19051 -1.11058 3.31996
lowerneck -3.72613 -16.7771 -17.6027
upperneck 23.2942 -21.1502 2.16842
head 10.2347 -11.048 0.983595
rclavicle -3.93594e-014 0
rhumerus -23.6507 -66.5513 -31.0778
rradius 69.6044
rwrist -45.8102
rhand -41.0509 -1.14475
rfingers 7.12502
rthumb -13.9807 -30.6546
lclavicle -3.93594e-014 0
lhumerus -49.8431 27.0704 34.0201
lradius 39.4001
lwrist -6.03141
lhand -1.7008 30.3515
lfingers 7.12502
lthumb 23.9603 58.8764
rfemur -20.0156 -13.1537 14.6984
rtibia 31.8633
rfoot -26.1566 -29.9499
rtoes 24.8647
lfemur -20.0629 -4.72522 -16.3174
ltibia 27.0252
lfoot -13.9435 -9.70039
ltoes -5.69092
